<svg width="66" height="67" viewBox="0 0 66 67" fill="none" xmlns="http://www.w3.org/2000/svg">
<circle cx="32.9432" cy="33.6169" r="32.9432" fill="#238B6A"/>
<path d="M57.3436 33.8018C57.286 29.1052 55.8873 24.5228 53.3124 20.5943C50.7374 16.6659 47.0938 13.555 42.8102 11.628C38.5264 9.70108 33.7814 9.03834 29.1337 9.71781C24.4861 10.3973 20.1293 12.3907 16.5767 15.4633C13.0239 18.5359 10.4232 22.5598 9.08077 27.0609C7.73834 31.5621 7.71006 36.353 8.99931 40.8698C10.2886 45.3865 12.8416 49.4406 16.3578 52.5549C19.874 55.6693 24.2069 57.714 28.8462 58.4482V40.9801H22.6847V33.8018H28.8462V28.3488C28.7036 27.081 28.841 25.7972 29.2489 24.5881C29.6568 23.3791 30.325 22.2743 31.2064 21.3518C32.0878 20.4292 33.1609 19.7114 34.3501 19.2489C35.5393 18.7864 36.8156 18.5906 38.0886 18.6752C39.9365 18.7005 41.78 18.8653 43.6032 19.1682V25.3297H40.5224C39.9913 25.2627 39.4516 25.316 38.9438 25.4855C38.4358 25.655 37.9725 25.9365 37.588 26.3092C37.2035 26.6818 36.9077 27.1361 36.7226 27.6384C36.5371 28.1409 36.4672 28.6785 36.5174 29.2115V33.8634H43.3568L42.2477 41.0417H36.5482V58.2942C42.3706 57.3733 47.6702 54.396 51.4854 49.9024C55.3007 45.4087 57.379 39.6966 57.3436 33.8018Z" fill="#E9F8ED"/>
</svg>
