<svg width="67" height="67" viewBox="0 0 67 67" fill="none" xmlns="http://www.w3.org/2000/svg">
<circle cx="33.7156" cy="33.6169" r="32.9432" fill="#238B6A"/>
<path d="M38.3931 39.6523L37.5595 40.5298C37.5595 40.5298 35.5781 42.6159 30.17 36.922C24.7618 31.2282 26.7431 29.1422 26.7431 29.1422L27.2681 28.5896C28.5612 27.2282 28.6831 25.0425 27.5549 23.4468L25.2471 20.1827C23.8507 18.2077 21.1524 17.9468 19.5519 19.6319L16.6793 22.6562C15.8857 23.4917 15.3539 24.5748 15.4184 25.7763C15.5834 28.8501 16.8968 35.4635 24.226 43.1799C31.9983 51.3626 39.291 51.6879 42.2733 51.3936C43.2166 51.3004 44.0368 50.7918 44.6979 50.0958L47.2978 47.3586C49.0528 45.511 48.5579 42.3435 46.3125 41.0511L42.8159 39.0384C41.3415 38.1898 39.5454 38.439 38.3931 39.6523Z" fill="#E9F8ED"/>
<path d="M34.1892 16.4679C34.3104 15.7195 35.0178 15.2119 35.7661 15.333C35.8124 15.3419 35.9616 15.3698 36.0395 15.3871C36.1958 15.4219 36.4136 15.4755 36.6852 15.5546C37.2284 15.7128 37.9872 15.9734 38.8979 16.3909C40.7213 17.2269 43.1478 18.6892 45.6657 21.2072C48.1837 23.7251 49.646 26.1516 50.4818 27.9749C50.8995 28.8857 51.1601 29.6445 51.3182 30.1876C51.3973 30.4592 51.4509 30.6771 51.4857 30.8332C51.5031 30.9113 51.5159 30.974 51.5247 31.0204L51.5353 31.0775C51.6562 31.8257 51.1533 32.5625 50.405 32.6837C49.6588 32.8045 48.9558 32.2992 48.8317 31.5545C48.8279 31.5344 48.8173 31.4807 48.8061 31.43C48.7834 31.3286 48.7444 31.1679 48.6826 30.9553C48.5587 30.5301 48.3436 29.8981 47.9864 29.119C47.273 27.5628 45.99 25.4139 43.7244 23.1483C41.4591 20.8828 39.3101 19.5999 37.7539 18.8865C36.9748 18.5293 36.3428 18.3142 35.9175 18.1903C35.705 18.1284 35.4378 18.0671 35.3364 18.0445C34.5915 17.9204 34.0684 17.2141 34.1892 16.4679Z" fill="#E9F8ED"/>
<path fill-rule="evenodd" clip-rule="evenodd" d="M34.6029 22.781C34.8112 22.0521 35.5709 21.63 36.2999 21.8383L35.9229 23.1581C36.2999 21.8383 36.2999 21.8383 36.2999 21.8383L36.3026 21.839L36.3054 21.8398L36.3114 21.8416L36.3257 21.8459L36.3619 21.8571C36.3894 21.866 36.424 21.8774 36.465 21.892C36.5471 21.9212 36.6559 21.9627 36.7891 22.0198C37.0557 22.1341 37.42 22.3105 37.8676 22.5754C38.7633 23.1055 39.9862 23.9862 41.4229 25.4228C42.8596 26.8595 43.7401 28.0823 44.2703 28.9782C44.5351 29.4257 44.7116 29.79 44.8259 30.0566C44.883 30.1898 44.9246 30.2985 44.9537 30.3807C44.9683 30.4218 44.9797 30.4562 44.9886 30.4838L44.9998 30.52L45.004 30.5342L45.0058 30.5403L45.0066 30.5431C45.0066 30.5431 45.0075 30.5458 43.6876 30.9229L45.0075 30.5458C45.2158 31.2747 44.7935 32.0344 44.0648 32.2426C43.342 32.4491 42.5889 32.036 42.3731 31.3185L42.3664 31.2987C42.3567 31.2712 42.3365 31.2171 42.3027 31.138C42.235 30.98 42.1122 30.7215 41.9079 30.3764C41.4998 29.6869 40.7628 28.645 39.4816 27.364C38.2007 26.083 37.1588 25.346 36.4694 24.9379C36.1242 24.7336 35.8658 24.6108 35.7076 24.5431C35.6286 24.5092 35.5744 24.489 35.5469 24.4792L35.5272 24.4725C34.8098 24.2567 34.3965 23.5037 34.6029 22.781Z" fill="#E9F8ED"/>
</svg>
