<svg width="67" height="67" viewBox="0 0 67 67" fill="none" xmlns="http://www.w3.org/2000/svg">
<circle cx="33.8299" cy="33.6169" r="32.9432" fill="#238B6A"/>
<path fill-rule="evenodd" clip-rule="evenodd" d="M46.6125 42.6677C46.0832 44.1659 43.9792 45.4054 42.3013 45.7679C41.1527 46.0117 39.6548 46.2047 34.608 44.1132C28.9395 41.7648 21.0683 33.3994 21.0683 27.8325C21.0683 24.9986 22.7023 21.6986 25.5596 21.6986C26.9344 21.6986 27.2375 21.7254 27.6899 22.8106C28.2192 24.0892 29.5106 27.2394 29.6643 27.5623C30.299 28.887 29.0186 29.6625 28.0896 30.8159C27.7931 31.163 27.4571 31.5383 27.8327 32.1842C28.206 32.8169 29.4974 34.9215 31.3949 36.6109C33.8459 38.7946 35.8335 39.4918 36.545 39.7884C37.0743 40.0081 37.7068 39.9569 38.0934 39.5439C38.5831 39.0144 39.1915 38.136 39.8108 37.2704C40.2478 36.6509 40.8035 36.5736 41.3855 36.7932C41.7786 36.9295 46.775 39.2498 46.9858 39.6211C47.1417 39.8913 47.1418 41.1694 46.6125 42.6677ZM33.8327 11.6548H33.8217C21.714 11.6548 11.8662 21.5056 11.8662 33.6169C11.8662 38.4193 13.4146 42.8747 16.0478 46.4885L13.3113 54.6492L21.7514 51.9522C25.2236 54.2502 29.3678 55.579 33.8327 55.579C45.9404 55.579 55.7904 45.7282 55.7904 33.6169C55.7904 21.5056 45.9404 11.6548 33.8327 11.6548Z" fill="#E9F8ED"/>
</svg>
