<svg width="281" height="124" viewBox="0 0 281 124" fill="none" xmlns="http://www.w3.org/2000/svg">
<path d="M21.1884 86.69C17.6464 86.69 14.4494 85.862 11.5974 84.206C8.7914 82.55 6.5834 80.296 4.9734 77.444C3.3634 74.546 2.5584 71.303 2.5584 67.715C2.5584 64.035 3.3634 60.769 4.9734 57.917C6.5834 55.019 8.7914 52.742 11.5974 51.086C14.4494 49.43 17.6464 48.602 21.1884 48.602C24.4544 48.602 27.4444 49.2 30.1584 50.396C32.9184 51.546 35.0804 53.133 36.6444 55.157L30.6414 62.471C30.0434 61.689 29.3074 60.976 28.4334 60.332C27.5594 59.688 26.5934 59.182 25.5354 58.814C24.4774 58.446 23.3734 58.262 22.2234 58.262C20.4754 58.262 18.9344 58.676 17.6004 59.504C16.2664 60.286 15.2314 61.39 14.4954 62.816C13.7594 64.242 13.3914 65.852 13.3914 67.646C13.3914 69.394 13.7594 70.981 14.4954 72.407C15.2774 73.787 16.3354 74.891 17.6694 75.719C19.0034 76.547 20.4984 76.961 22.1544 76.961C23.3504 76.961 24.4544 76.8 25.4664 76.478C26.4784 76.156 27.3984 75.696 28.2264 75.098C29.1004 74.5 29.9054 73.787 30.6414 72.959L36.6444 80.273C35.0804 82.205 32.8954 83.769 30.0894 84.965C27.2834 86.115 24.3164 86.69 21.1884 86.69ZM64.722 86.69C63.066 86.69 61.479 86.46 59.961 86C58.489 85.54 57.132 84.942 55.89 84.206C54.648 83.424 53.613 82.527 52.785 81.515C52.003 80.503 51.497 79.445 51.267 78.341L53.682 77.513L53.061 85.862H42.711V34.94H53.889V57.917L51.612 57.158C51.888 56.008 52.417 54.927 53.199 53.915C53.981 52.903 54.947 52.006 56.097 51.224C57.293 50.396 58.604 49.752 60.03 49.292C61.456 48.832 62.928 48.602 64.446 48.602C67.62 48.602 70.426 49.43 72.864 51.086C75.348 52.742 77.303 55.019 78.729 57.917C80.155 60.769 80.868 64.035 80.868 67.715C80.868 71.395 80.155 74.661 78.729 77.513C77.349 80.365 75.44 82.619 73.002 84.275C70.564 85.885 67.804 86.69 64.722 86.69ZM61.824 77.375C63.48 77.375 64.906 76.984 66.102 76.202C67.344 75.374 68.31 74.247 69 72.821C69.69 71.349 70.035 69.647 70.035 67.715C70.035 65.737 69.69 64.035 69 62.609C68.356 61.137 67.413 60.01 66.171 59.228C64.929 58.4 63.48 57.986 61.824 57.986C60.168 57.986 58.719 58.4 57.477 59.228C56.235 60.01 55.269 61.137 54.579 62.609C53.889 64.035 53.544 65.737 53.544 67.715C53.544 69.647 53.889 71.349 54.579 72.821C55.269 74.247 56.235 75.374 57.477 76.202C58.719 76.984 60.168 77.375 61.824 77.375ZM91.163 86V40.115H102.272V86H91.163ZM84.677 59.09V49.361H109.31V59.09H84.677Z" fill="#C0E9DB"/>
<path d="M116.319 107.985C113.845 113.824 113.713 123.04 113.713 123.04C113.713 123.04 112.936 119.506 112.556 117.539C111.544 112.311 112.117 109.738 113.134 104.511C114.159 99.2472 117.477 91.4835 117.477 91.4835L127.61 90.9045L123.846 96.1156C123.846 96.1156 118.301 103.307 116.319 107.985Z" fill="url(#paint0_linear_64_498)"/>
<path d="M105.028 81.0613C97.6332 78.6194 90.2637 67.7441 90.2637 67.7441C90.2637 67.7441 99.0211 74.264 105.607 74.9817C111.317 75.604 114.866 74.78 120.083 72.3762C125.763 69.7588 131.663 61.954 131.663 61.954C131.663 61.954 125.294 54.4269 119.793 51.2423C110.633 45.939 95.1853 40.2412 95.1853 40.2412C95.1853 40.2412 100.506 40.337 103.87 40.8202C109.082 41.5686 112.213 42.8651 116.898 44.2942C121.583 45.7233 127.031 48.0578 128.768 48.3473C131.611 48.8212 134.635 47.9343 135.426 45.1627C136.005 43.1362 135.322 36.6093 134.268 31.2665C133.189 25.7941 129.926 17.6598 129.926 17.6598C129.926 17.6598 132.776 22.1392 134.268 25.1869C136.032 28.7881 136.892 30.896 138.032 34.7406C140.328 42.4853 141.186 47.261 140.348 55.2954C139.779 60.75 137.742 67.1651 137.453 68.3231C137.163 69.4811 136.945 70.6688 136.874 71.7972C136.547 76.974 132.242 84.2459 132.242 84.2459L120.662 86.5619L123.557 80.1928C123.557 80.1928 111.685 83.2595 105.028 81.0613Z" fill="url(#paint1_linear_64_498)"/>
<path d="M130.474 46.2916C126.875 46.2519 121.446 42.9515 121.82 39.3726C122.215 35.5927 127.32 32.135 129.926 34.1616C132.531 36.1881 134.268 39.6621 134.268 42.8467C134.268 45.4837 133.11 46.3208 130.474 46.2916Z" fill="url(#paint2_linear_64_498)"/>
<path d="M154.428 86.69C150.886 86.69 147.689 85.862 144.837 84.206C142.031 82.55 139.823 80.296 138.213 77.444C136.603 74.546 135.798 71.303 135.798 67.715C135.798 64.035 136.603 60.769 138.213 57.917C139.823 55.019 142.031 52.742 144.837 51.086C147.689 49.43 150.886 48.602 154.428 48.602C157.694 48.602 160.684 49.2 163.398 50.396C166.158 51.546 168.32 53.133 169.884 55.157L163.881 62.471C163.283 61.689 162.547 60.976 161.673 60.332C160.799 59.688 159.833 59.182 158.775 58.814C157.717 58.446 156.613 58.262 155.463 58.262C153.715 58.262 152.174 58.676 150.84 59.504C149.506 60.286 148.471 61.39 147.735 62.816C146.999 64.242 146.631 65.852 146.631 67.646C146.631 69.394 146.999 70.981 147.735 72.407C148.517 73.787 149.575 74.891 150.909 75.719C152.243 76.547 153.738 76.961 155.394 76.961C156.59 76.961 157.694 76.8 158.706 76.478C159.718 76.156 160.638 75.696 161.466 75.098C162.34 74.5 163.145 73.787 163.881 72.959L169.884 80.273C168.32 82.205 166.135 83.769 163.329 84.965C160.523 86.115 157.556 86.69 154.428 86.69ZM195.477 86V63.506C195.477 61.62 194.948 60.24 193.89 59.366C192.878 58.446 191.452 57.986 189.612 57.986C187.818 57.986 186.208 58.331 184.782 59.021C183.402 59.665 182.068 60.746 180.78 62.264L174.156 55.847C176.364 53.593 178.894 51.822 181.746 50.534C184.598 49.246 187.703 48.602 191.061 48.602C194.143 48.602 196.811 49.062 199.065 49.982C201.319 50.902 203.067 52.305 204.309 54.191C205.551 56.077 206.172 58.469 206.172 61.367V86H195.477ZM185.955 86.69C183.655 86.69 181.562 86.23 179.676 85.31C177.836 84.39 176.364 83.125 175.26 81.515C174.202 79.859 173.673 77.927 173.673 75.719C173.673 73.833 174.018 72.177 174.708 70.751C175.398 69.325 176.41 68.152 177.744 67.232C179.124 66.266 180.826 65.553 182.85 65.093C184.92 64.587 187.312 64.334 190.026 64.334H201.135L200.514 71.303H190.302C189.336 71.303 188.485 71.395 187.749 71.579C187.013 71.717 186.392 71.97 185.886 72.338C185.38 72.66 184.989 73.051 184.713 73.511C184.483 73.971 184.368 74.523 184.368 75.167C184.368 75.857 184.552 76.455 184.92 76.961C185.288 77.467 185.771 77.858 186.369 78.134C187.013 78.41 187.749 78.548 188.577 78.548C189.773 78.548 190.9 78.364 191.958 77.996C193.062 77.582 194.028 77.007 194.856 76.271C195.73 75.535 196.42 74.684 196.926 73.718L198.858 78.686C197.892 80.25 196.719 81.63 195.339 82.826C194.005 84.022 192.533 84.965 190.923 85.655C189.359 86.345 187.703 86.69 185.955 86.69ZM215.032 86V49.361H225.589L226.072 61.298L224.002 58.952C224.6 57.02 225.52 55.272 226.762 53.708C228.004 52.144 229.476 50.902 231.178 49.982C232.926 49.062 234.743 48.602 236.629 48.602C237.457 48.602 238.216 48.671 238.906 48.809C239.642 48.901 240.286 49.062 240.838 49.292L237.871 61.505C237.365 61.229 236.675 60.999 235.801 60.815C234.973 60.585 234.099 60.47 233.179 60.47C232.167 60.47 231.224 60.654 230.35 61.022C229.522 61.344 228.786 61.827 228.142 62.471C227.544 63.115 227.061 63.874 226.693 64.748C226.371 65.622 226.21 66.611 226.21 67.715V86H215.032ZM262.407 86.69C258.359 86.69 254.817 85.885 251.781 84.275C248.791 82.665 246.468 80.457 244.812 77.651C243.202 74.799 242.397 71.556 242.397 67.922C242.397 65.07 242.857 62.471 243.777 60.125C244.697 57.733 245.985 55.686 247.641 53.984C249.343 52.282 251.321 50.971 253.575 50.051C255.875 49.085 258.382 48.602 261.096 48.602C263.672 48.602 266.018 49.062 268.134 49.982C270.25 50.902 272.09 52.19 273.654 53.846C275.218 55.502 276.414 57.457 277.242 59.711C278.07 61.965 278.461 64.426 278.415 67.094L278.346 70.13H249.228L247.572 63.851H269.307L268.134 65.093V63.713C268.042 62.563 267.674 61.574 267.03 60.746C266.432 59.872 265.627 59.182 264.615 58.676C263.649 58.17 262.545 57.917 261.303 57.917C259.463 57.917 257.899 58.285 256.611 59.021C255.369 59.711 254.426 60.723 253.782 62.057C253.138 63.391 252.816 65.047 252.816 67.025C252.816 69.003 253.23 70.751 254.058 72.269C254.932 73.787 256.174 74.96 257.784 75.788C259.44 76.616 261.395 77.03 263.649 77.03C265.167 77.03 266.547 76.8 267.789 76.34C269.031 75.88 270.365 75.098 271.791 73.994L276.966 81.308C275.54 82.504 274.022 83.516 272.412 84.344C270.802 85.126 269.146 85.701 267.444 86.069C265.788 86.483 264.109 86.69 262.407 86.69Z" fill="#C0E9DB"/>
<path d="M133.111 31.556V33.5826L122.399 28.661C122.399 28.661 115.652 25.9856 111.108 25.1869C106.538 24.3835 99.2388 24.6079 99.2388 24.6079C99.2388 24.6079 106.255 25.0672 110.529 26.3449C114.313 27.476 119.794 30.398 119.794 30.398C114.728 34.6289 109.942 35.3607 103.581 34.1616C98.0163 33.1123 95.9804 29.4114 90.5537 27.7925C86.9198 26.7084 81 26.0554 81 26.0554C81 26.0554 85.5476 24.6533 88.5271 24.0289C93.3174 23.0251 96.0816 22.5597 100.976 22.5814C105.183 22.6 107.561 22.9172 111.687 23.7394C115.967 24.5922 122.399 26.924 122.399 26.924L133.111 31.556Z" fill="url(#paint3_linear_64_498)"/>
<path d="M121.531 15.3437C122.394 18.272 121.531 23.1604 121.531 23.1604C121.531 23.1604 120.189 23.0379 119.504 22.5814C117.767 21.4233 116.282 19.8688 114.583 17.9493C112.129 15.1759 109.661 9.84316 109.661 9.84316C109.661 9.84316 109.73 11.4491 109.951 12.4487C110.355 14.2768 112.267 17.0808 114.293 19.3968C115.926 21.2629 118.636 24.0289 118.636 24.0289C118.636 24.0289 116.191 23.7394 114.583 22.2919C111.688 19.6863 109.841 17.6763 108.214 13.8962C106.061 8.89435 107.056 0 107.056 0C107.056 0 109.534 2.99756 111.398 4.63208C113.474 6.45152 115.247 6.72361 117.188 8.68514C119.373 10.8914 120.654 12.3658 121.531 15.3437Z" fill="url(#paint4_linear_64_498)"/>
<path d="M115.162 90.3255C104.664 90.0135 89.1064 83.6669 89.1064 83.6669C89.1064 83.6669 104.829 88.5013 115.162 88.2989L115.197 88.2983C122.034 88.1644 126.115 88.0844 132.532 85.6934C137.802 83.7299 140.58 82.2928 144.691 78.4558C149.034 74.4027 149.902 72.8499 151.06 68.9021C152.218 64.9543 152.218 61.6645 151.06 57.0324C150.052 52.9994 149.112 50.7745 147.007 47.1893C145.05 43.8541 140.928 39.3726 140.928 39.3726L140.349 36.4776C140.349 36.4776 142.688 38.5476 144.112 39.9517C147.423 43.2142 150.771 47.1893 152.218 50.6633C153.496 53.7291 156.25 59.059 155.982 63.691C155.613 70.0639 154.277 73.5504 150.192 78.4558C146.118 83.3472 141.897 85.8871 136.006 88.2989C128.504 91.3703 123.265 90.5662 115.162 90.3255Z" fill="url(#paint5_linear_64_498)"/>
<defs>
<linearGradient id="paint0_linear_64_498" x1="115.463" y1="17.6598" x2="115.463" y2="123.04" gradientUnits="userSpaceOnUse">
<stop stop-color="#6FE227"/>
<stop offset="1" stop-color="#C0E9DB"/>
</linearGradient>
<linearGradient id="paint1_linear_64_498" x1="115.463" y1="17.6598" x2="115.463" y2="123.04" gradientUnits="userSpaceOnUse">
<stop stop-color="#6FE227"/>
<stop offset="1" stop-color="#C0E9DB"/>
</linearGradient>
<linearGradient id="paint2_linear_64_498" x1="115.463" y1="17.6598" x2="115.463" y2="123.04" gradientUnits="userSpaceOnUse">
<stop stop-color="#6FE227"/>
<stop offset="1" stop-color="#C0E9DB"/>
</linearGradient>
<linearGradient id="paint3_linear_64_498" x1="81" y1="28.6305" x2="133.111" y2="28.6305" gradientUnits="userSpaceOnUse">
<stop stop-color="#41AB86"/>
<stop offset="0.48" stop-color="#54BF9D"/>
<stop offset="1" stop-color="#238B6A"/>
</linearGradient>
<linearGradient id="paint4_linear_64_498" x1="114.37" y1="0" x2="114.37" y2="24.0289" gradientUnits="userSpaceOnUse">
<stop stop-color="#3DA682"/>
<stop offset="0.455" stop-color="#62C5A5"/>
<stop offset="1" stop-color="#238B6A"/>
</linearGradient>
<linearGradient id="paint5_linear_64_498" x1="122.553" y1="36.4776" x2="122.553" y2="90.6009" gradientUnits="userSpaceOnUse">
<stop stop-color="#23B195"/>
<stop offset="0.45" stop-color="#C0E9DB"/>
<stop offset="1" stop-color="#238B73"/>
</linearGradient>
</defs>
</svg>
